# Blender v2.78 (sub 0) OBJ File: ''
# www.blender.org
mtllib bomb.mtl
o Cone
v -0.000000 0.800000 -0.024242
v -0.000000 -0.000000 0.775758
v 0.156072 0.784628 -0.024242
v 0.306147 0.739103 -0.024242
v 0.444456 0.665175 -0.024242
v 0.565685 0.565685 -0.024242
v 0.665176 0.444456 -0.024242
v 0.739103 0.306147 -0.024242
v 0.784628 0.156072 -0.024242
v 0.800000 -0.000000 -0.024242
v 0.784628 -0.156072 -0.024242
v 0.739104 -0.306147 -0.024242
v 0.665176 -0.444456 -0.024242
v 0.565685 -0.565686 -0.024242
v 0.444456 -0.665176 -0.024242
v 0.306147 -0.739104 -0.024242
v 0.156072 -0.784629 -0.024242
v -0.000000 -0.800000 -0.024242
v -0.156073 -0.784628 -0.024242
v -0.306147 -0.739104 -0.024242
v -0.444457 -0.665176 -0.024242
v -0.565686 -0.565685 -0.024242
v -0.665176 -0.444456 -0.024242
v -0.739104 -0.306146 -0.024242
v -0.784628 -0.156072 -0.024242
v -0.800000 0.000001 -0.024242
v -0.784628 0.156073 -0.024242
v -0.739103 0.306147 -0.024242
v -0.665175 0.444457 -0.024242
v -0.565685 0.565686 -0.024242
v -0.444455 0.665176 -0.024242
v -0.306146 0.739104 -0.024242
v -0.156071 0.784628 -0.024242
v 0.000000 0.533333 -0.800000
v 0.000000 0.533333 0.000000
v 0.104048 0.523086 -0.800000
v 0.104048 0.523086 0.000000
v 0.204098 0.492736 -0.800000
v 0.204098 0.492736 0.000000
v 0.296304 0.443450 -0.800000
v 0.296304 0.443450 0.000000
v 0.377124 0.377124 -0.800000
v 0.377124 0.377124 0.000000
v 0.443451 0.296304 -0.800000
v 0.443451 0.296304 0.000000
v 0.492736 0.204098 -0.800000
v 0.492736 0.204098 0.000000
v 0.523086 0.104048 -0.800000
v 0.523086 0.104048 0.000000
v 0.533333 0.000000 -0.800000
v 0.533333 0.000000 0.000000
v 0.523086 -0.104048 -0.800000
v 0.523086 -0.104048 -0.000000
v 0.492736 -0.204098 -0.800000
v 0.492736 -0.204098 -0.000000
v 0.443451 -0.296304 -0.800000
v 0.443451 -0.296304 -0.000000
v 0.377124 -0.377124 -0.800000
v 0.377124 -0.377124 -0.000000
v 0.296304 -0.443450 -0.800000
v 0.296304 -0.443451 -0.000000
v 0.204098 -0.492736 -0.800000
v 0.204098 -0.492736 -0.000000
v 0.104048 -0.523085 -0.800000
v 0.104048 -0.523086 -0.000000
v -0.000000 -0.533333 -0.800000
v -0.000000 -0.533333 -0.000000
v -0.104048 -0.523085 -0.800000
v -0.104048 -0.523085 -0.000000
v -0.204098 -0.492736 -0.800000
v -0.204098 -0.492736 -0.000000
v -0.296304 -0.443450 -0.800000
v -0.296304 -0.443450 -0.000000
v -0.377124 -0.377123 -0.800000
v -0.377124 -0.377123 -0.000000
v -0.443451 -0.296304 -0.800000
v -0.443451 -0.296304 -0.000000
v -0.492736 -0.204097 -0.800000
v -0.492736 -0.204097 -0.000000
v -0.523086 -0.104048 -0.800000
v -0.523086 -0.104048 -0.000000
v -0.533333 0.000001 -0.800000
v -0.533333 0.000001 0.000000
v -0.523085 0.104049 -0.800000
v -0.523085 0.104049 0.000000
v -0.492736 0.204098 -0.800000
v -0.492736 0.204098 0.000000
v -0.443450 0.296305 -0.800000
v -0.443450 0.296305 0.000000
v -0.377123 0.377124 -0.800000
v -0.377123 0.377124 0.000000
v -0.296304 0.443451 -0.800000
v -0.296304 0.443451 0.000000
v -0.204097 0.492736 -0.800000
v -0.204097 0.492736 0.000000
v -0.104047 0.523086 -0.800000
v -0.104047 0.523086 0.000000
vn 0.0695 0.7054 0.7054
vn 0.2058 0.6783 0.7054
vn 0.3341 0.6251 0.7054
vn 0.4497 0.5479 0.7054
vn 0.5479 0.4497 0.7054
vn 0.6251 0.3341 0.7054
vn 0.6783 0.2058 0.7054
vn 0.7054 0.0695 0.7054
vn 0.7054 -0.0695 0.7054
vn 0.6783 -0.2058 0.7054
vn 0.6251 -0.3341 0.7054
vn 0.5479 -0.4497 0.7054
vn 0.4497 -0.5479 0.7054
vn 0.3341 -0.6251 0.7054
vn 0.2058 -0.6783 0.7054
vn 0.0695 -0.7054 0.7054
vn -0.0695 -0.7054 0.7054
vn -0.2058 -0.6783 0.7054
vn -0.3341 -0.6251 0.7054
vn -0.4497 -0.5479 0.7054
vn -0.5479 -0.4497 0.7054
vn -0.6251 -0.3341 0.7054
vn -0.6783 -0.2058 0.7054
vn -0.7054 -0.0695 0.7054
vn -0.7054 0.0695 0.7054
vn -0.6783 0.2058 0.7054
vn -0.6251 0.3341 0.7054
vn -0.5479 0.4497 0.7054
vn -0.4497 0.5479 0.7054
vn -0.3341 0.6251 0.7054
vn -0.2058 0.6783 0.7054
vn -0.0695 0.7054 0.7054
vn 0.0000 0.0000 -1.0000
vn 0.0980 0.9952 0.0000
vn 0.2903 0.9569 0.0000
vn 0.4714 0.8819 0.0000
vn 0.6344 0.7730 0.0000
vn 0.7730 0.6344 0.0000
vn 0.8819 0.4714 0.0000
vn 0.9569 0.2903 0.0000
vn 0.9952 0.0980 0.0000
vn 0.9952 -0.0980 -0.0000
vn 0.9569 -0.2903 -0.0000
vn 0.8819 -0.4714 -0.0000
vn 0.7730 -0.6344 0.0000
vn 0.6344 -0.7730 0.0000
vn 0.4714 -0.8819 0.0000
vn 0.2903 -0.9569 -0.0000
vn 0.0980 -0.9952 -0.0000
vn -0.0980 -0.9952 -0.0000
vn -0.2903 -0.9569 0.0000
vn -0.4714 -0.8819 0.0000
vn -0.6344 -0.7730 0.0000
vn -0.7730 -0.6344 0.0000
vn -0.8819 -0.4714 -0.0000
vn -0.9569 -0.2903 -0.0000
vn -0.9952 -0.0980 -0.0000
vn -0.9952 0.0980 0.0000
vn -0.9569 0.2903 0.0000
vn -0.8819 0.4714 0.0000
vn -0.7730 0.6344 0.0000
vn -0.6344 0.7730 0.0000
vn -0.4714 0.8819 0.0000
vn -0.2903 0.9569 0.0000
vn -0.0980 0.9952 0.0000
usemtl Material.001
s off
f 1//1 2//1 3//1
f 3//2 2//2 4//2
f 4//3 2//3 5//3
f 5//4 2//4 6//4
f 6//5 2//5 7//5
f 7//6 2//6 8//6
f 8//7 2//7 9//7
f 9//8 2//8 10//8
f 10//9 2//9 11//9
f 11//10 2//10 12//10
f 12//11 2//11 13//11
f 13//12 2//12 14//12
f 14//13 2//13 15//13
f 15//14 2//14 16//14
f 16//15 2//15 17//15
f 17//16 2//16 18//16
f 18//17 2//17 19//17
f 19//18 2//18 20//18
f 20//19 2//19 21//19
f 21//20 2//20 22//20
f 22//21 2//21 23//21
f 23//22 2//22 24//22
f 24//23 2//23 25//23
f 25//24 2//24 26//24
f 26//25 2//25 27//25
f 27//26 2//26 28//26
f 28//27 2//27 29//27
f 29//28 2//28 30//28
f 30//29 2//29 31//29
f 31//30 2//30 32//30
f 32//31 2//31 33//31
f 33//32 2//32 1//32
f 17//33 25//33 9//33
f 35//34 36//34 34//34
f 37//35 38//35 36//35
f 39//36 40//36 38//36
f 41//37 42//37 40//37
f 43//38 44//38 42//38
f 45//39 46//39 44//39
f 47//40 48//40 46//40
f 49//41 50//41 48//41
f 51//42 52//42 50//42
f 53//43 54//43 52//43
f 55//44 56//44 54//44
f 57//45 58//45 56//45
f 59//46 60//46 58//46
f 61//47 62//47 60//47
f 63//48 64//48 62//48
f 65//49 66//49 64//49
f 67//50 68//50 66//50
f 69//51 70//51 68//51
f 71//52 72//52 70//52
f 73//53 74//53 72//53
f 75//54 76//54 74//54
f 77//55 78//55 76//55
f 79//56 80//56 78//56
f 81//57 82//57 80//57
f 83//58 84//58 82//58
f 85//59 86//59 84//59
f 87//60 88//60 86//60
f 89//61 90//61 88//61
f 91//62 92//62 90//62
f 93//63 94//63 92//63
f 95//64 96//64 94//64
f 97//65 34//65 96//65
f 64//33 80//33 96//33
f 33//33 1//33 3//33
f 3//33 4//33 5//33
f 5//33 6//33 7//33
f 7//33 8//33 5//33
f 9//33 10//33 11//33
f 11//33 12//33 13//33
f 13//33 14//33 17//33
f 15//33 16//33 17//33
f 17//33 18//33 21//33
f 19//33 20//33 21//33
f 21//33 22//33 23//33
f 23//33 24//33 25//33
f 25//33 26//33 27//33
f 27//33 28//33 29//33
f 29//33 30//33 33//33
f 31//33 32//33 33//33
f 33//33 3//33 9//33
f 5//33 8//33 9//33
f 9//33 11//33 17//33
f 14//33 15//33 17//33
f 18//33 19//33 21//33
f 21//33 23//33 25//33
f 25//33 27//33 33//33
f 30//33 31//33 33//33
f 3//33 5//33 9//33
f 11//33 13//33 17//33
f 17//33 21//33 25//33
f 27//33 29//33 33//33
f 33//33 9//33 25//33
f 35//34 37//34 36//34
f 37//35 39//35 38//35
f 39//36 41//36 40//36
f 41//37 43//37 42//37
f 43//38 45//38 44//38
f 45//39 47//39 46//39
f 47//40 49//40 48//40
f 49//41 51//41 50//41
f 51//42 53//42 52//42
f 53//43 55//43 54//43
f 55//44 57//44 56//44
f 57//45 59//45 58//45
f 59//46 61//46 60//46
f 61//47 63//47 62//47
f 63//48 65//48 64//48
f 65//49 67//49 66//49
f 67//50 69//50 68//50
f 69//51 71//51 70//51
f 71//52 73//52 72//52
f 73//53 75//53 74//53
f 75//54 77//54 76//54
f 77//55 79//55 78//55
f 79//56 81//56 80//56
f 81//57 83//57 82//57
f 83//58 85//58 84//58
f 85//59 87//59 86//59
f 87//60 89//60 88//60
f 89//61 91//61 90//61
f 91//62 93//62 92//62
f 93//63 95//63 94//63
f 95//64 97//64 96//64
f 97//65 35//65 34//65
f 96//33 34//33 36//33
f 36//33 38//33 40//33
f 40//33 42//33 48//33
f 44//33 46//33 48//33
f 48//33 50//33 52//33
f 52//33 54//33 56//33
f 56//33 58//33 64//33
f 60//33 62//33 64//33
f 64//33 66//33 68//33
f 68//33 70//33 72//33
f 72//33 74//33 76//33
f 76//33 78//33 80//33
f 80//33 82//33 84//33
f 84//33 86//33 80//33
f 88//33 90//33 96//33
f 92//33 94//33 96//33
f 96//33 36//33 40//33
f 42//33 44//33 48//33
f 48//33 52//33 64//33
f 58//33 60//33 64//33
f 64//33 68//33 80//33
f 72//33 76//33 80//33
f 80//33 86//33 88//33
f 90//33 92//33 96//33
f 96//33 40//33 64//33
f 52//33 56//33 64//33
f 68//33 72//33 80//33
f 80//33 88//33 96//33
f 40//33 48//33 64//33
