# Blender v2.79 (sub 0) OBJ File: 'clock.blend'
# www.blender.org
mtllib clock.mtl
o Circle.001
v -0.100000 0.000000 -1.000000
v -0.100000 0.195090 -0.980785
v -0.100000 0.382683 -0.923880
v -0.100000 0.555570 -0.831470
v -0.100000 0.707107 -0.707107
v -0.100000 0.831470 -0.555570
v -0.100000 0.923880 -0.382683
v -0.100000 0.980785 -0.195090
v -0.100000 1.000000 -0.000000
v -0.100000 0.980785 0.195090
v -0.100000 0.923880 0.382683
v -0.100000 0.831470 0.555570
v -0.100000 0.707107 0.707107
v -0.100000 0.555570 0.831470
v -0.100000 0.382683 0.923880
v -0.100000 0.195090 0.980785
v -0.100000 -0.000000 1.000000
v -0.100000 -0.195091 0.980785
v -0.100000 -0.382684 0.923879
v -0.100000 -0.555571 0.831469
v -0.100000 -0.707107 0.707106
v -0.100000 -0.831470 0.555570
v -0.100000 -0.923880 0.382683
v -0.100000 -0.980785 0.195089
v -0.100000 -1.000000 -0.000001
v -0.100000 -0.980785 -0.195091
v -0.100000 -0.923879 -0.382684
v -0.100000 -0.831469 -0.555571
v -0.100000 -0.707106 -0.707108
v -0.100000 -0.555569 -0.831470
v -0.100000 -0.382682 -0.923880
v -0.100000 -0.195089 -0.980786
v -0.100000 0.000000 -0.800000
v -0.100000 0.156072 -0.784628
v -0.100000 0.306147 -0.739104
v -0.100000 0.444456 -0.665176
v -0.100000 0.565685 -0.565685
v -0.100000 0.665176 -0.444456
v -0.100000 0.739104 -0.306147
v -0.100000 0.784628 -0.156072
v -0.100000 0.800000 -0.000000
v -0.100000 0.784628 0.156072
v -0.100000 0.739104 0.306147
v -0.100000 0.665176 0.444456
v -0.100000 0.565685 0.565685
v -0.100000 0.444456 0.665176
v -0.100000 0.306147 0.739104
v -0.100000 0.156072 0.784628
v -0.100000 -0.000000 0.800000
v -0.100000 -0.156073 0.784628
v -0.100000 -0.306147 0.739103
v -0.100000 -0.444457 0.665175
v -0.100000 -0.565686 0.565685
v -0.100000 -0.665176 0.444456
v -0.100000 -0.739104 0.306146
v -0.100000 -0.784628 0.156072
v -0.100000 -0.800000 -0.000001
v -0.100000 -0.784628 -0.156073
v -0.100000 -0.739103 -0.306148
v -0.100000 -0.665175 -0.444457
v -0.100000 -0.565685 -0.565686
v -0.100000 -0.444455 -0.665176
v -0.100000 -0.306146 -0.739104
v -0.100000 -0.156071 -0.784628
v 0.100000 -0.000000 -1.000000
v 0.100000 -0.195090 -0.980785
v 0.100000 -0.382683 -0.923880
v 0.100000 -0.555570 -0.831470
v 0.100000 -0.707107 -0.707107
v 0.100000 -0.831470 -0.555570
v 0.100000 -0.923880 -0.382683
v 0.100000 -0.980785 -0.195090
v 0.100000 -1.000000 -0.000000
v 0.100000 -0.980785 0.195090
v 0.100000 -0.923880 0.382683
v 0.100000 -0.831470 0.555570
v 0.100000 -0.707107 0.707107
v 0.100000 -0.555570 0.831470
v 0.100000 -0.382683 0.923880
v 0.100000 -0.195090 0.980785
v 0.100000 0.000000 1.000000
v 0.100000 0.195091 0.980785
v 0.100000 0.382684 0.923879
v 0.100000 0.555571 0.831469
v 0.100000 0.707107 0.707106
v 0.100000 0.831470 0.555570
v 0.100000 0.923880 0.382683
v 0.100000 0.980785 0.195089
v 0.100000 1.000000 -0.000001
v 0.100000 0.980785 -0.195091
v 0.100000 0.923879 -0.382684
v 0.100000 0.831469 -0.555571
v 0.100000 0.707106 -0.707108
v 0.100000 0.555569 -0.831470
v 0.100000 0.382682 -0.923880
v 0.100000 0.195089 -0.980786
v 0.100000 -0.000000 -0.800000
v 0.100000 -0.156072 -0.784628
v 0.100000 -0.306147 -0.739104
v 0.100000 -0.444456 -0.665176
v 0.100000 -0.565685 -0.565685
v 0.100000 -0.665176 -0.444456
v 0.100000 -0.739104 -0.306147
v 0.100000 -0.784628 -0.156072
v 0.100000 -0.800000 -0.000000
v 0.100000 -0.784628 0.156072
v 0.100000 -0.739104 0.306147
v 0.100000 -0.665176 0.444456
v 0.100000 -0.565685 0.565685
v 0.100000 -0.444456 0.665176
v 0.100000 -0.306147 0.739104
v 0.100000 -0.156072 0.784628
v 0.100000 0.000000 0.800000
v 0.100000 0.156073 0.784628
v 0.100000 0.306147 0.739103
v 0.100000 0.444457 0.665175
v 0.100000 0.565686 0.565685
v 0.100000 0.665176 0.444456
v 0.100000 0.739104 0.306146
v 0.100000 0.784628 0.156072
v 0.100000 0.800000 -0.000001
v 0.100000 0.784628 -0.156073
v 0.100000 0.739103 -0.306148
v 0.100000 0.665175 -0.444457
v 0.100000 0.565685 -0.565686
v 0.100000 0.444455 -0.665176
v 0.100000 0.306146 -0.739104
v 0.100000 0.156071 -0.784628
v -0.100000 0.273301 0.384808
v 0.100000 0.273301 0.384808
v -0.100000 -0.026699 -0.134808
v 0.100000 -0.026699 -0.134808
v -0.100000 0.186699 0.434808
v 0.100000 0.186699 0.434808
v -0.100000 -0.113301 -0.084808
v 0.100000 -0.113301 -0.084808
v -0.100000 -0.056699 0.171410
v 0.100000 -0.056699 0.171410
v -0.100000 0.343301 -0.521410
v 0.100000 0.343301 -0.521410
v -0.100000 -0.143301 0.121410
v 0.100000 -0.143301 0.121410
v -0.100000 0.256699 -0.571410
v 0.100000 0.256699 -0.571410
vn -1.0000 0.0000 0.0000
vn 1.0000 -0.0000 0.0000
vn -0.0000 -0.8819 0.4714
vn -0.0000 -0.9952 -0.0980
vn -0.0000 -0.6344 -0.7730
vn -0.0000 0.0980 -0.9952
vn 0.0000 0.6344 -0.7730
vn 0.0000 0.9569 0.2903
vn -0.0000 0.7730 0.6344
vn 0.0000 0.2903 0.9569
vn -0.0000 -0.0980 0.9952
vn -0.0000 -0.7730 0.6344
vn -0.0000 -0.9569 0.2903
vn -0.0000 -0.8819 -0.4714
vn 0.0000 -0.9952 0.0980
vn -0.0000 -0.9569 -0.2903
vn 0.0000 -0.0980 -0.9952
vn 0.0000 -0.2903 -0.9569
vn -0.0000 -0.4714 -0.8819
vn 0.0000 -0.7730 -0.6344
vn -0.0000 0.2903 -0.9569
vn 0.0000 0.4714 -0.8819
vn -0.0000 0.7730 -0.6344
vn -0.0000 0.8819 -0.4714
vn 0.0000 0.9569 -0.2903
vn 0.0000 0.9952 0.0980
vn 0.0000 0.8819 0.4714
vn -0.0000 0.9952 -0.0980
vn -0.0000 0.6344 0.7730
vn 0.0000 0.4714 0.8819
vn -0.0000 -0.6344 0.7730
vn -0.0000 -0.2903 0.9569
vn 0.0000 0.0980 0.9952
vn -0.0000 -0.4714 0.8819
vn 0.0000 0.8660 -0.5000
vn -0.0000 -0.5000 -0.8660
vn 0.0000 -0.8660 0.5000
vn 0.0000 0.5000 0.8660
vn 0.0000 0.8660 0.5000
vn 0.0000 0.5000 -0.8660
vn 0.0000 -0.8660 -0.5000
vn 0.0000 -0.5000 0.8660
usemtl Material.002
s off
f 51//1 20//1 19//1
f 20//1 53//1 21//1
f 55//1 22//1 54//1
f 58//1 25//1 57//1
f 62//1 29//1 61//1
f 33//1 32//1 64//1
f 37//1 4//1 36//1
f 41//1 9//1 8//1
f 47//1 15//1 14//1
f 51//1 52//1 20//1
f 20//1 52//1 53//1
f 21//1 53//1 54//1
f 55//1 56//1 24//1
f 21//1 54//1 22//1
f 23//1 22//1 55//1
f 55//1 24//1 23//1
f 24//1 56//1 57//1
f 58//1 59//1 27//1
f 24//1 57//1 25//1
f 26//1 25//1 58//1
f 58//1 27//1 26//1
f 27//1 59//1 60//1
f 27//1 60//1 28//1
f 29//1 28//1 61//1
f 31//1 30//1 62//1
f 62//1 63//1 31//1
f 60//1 61//1 28//1
f 30//1 29//1 62//1
f 31//1 63//1 64//1
f 33//1 34//1 2//1
f 31//1 64//1 32//1
f 1//1 32//1 33//1
f 33//1 2//1 1//1
f 2//1 34//1 35//1
f 2//1 35//1 3//1
f 4//1 3//1 36//1
f 6//1 5//1 37//1
f 37//1 38//1 6//1
f 35//1 36//1 3//1
f 5//1 4//1 37//1
f 6//1 38//1 39//1
f 6//1 39//1 7//1
f 8//1 7//1 40//1
f 10//1 9//1 41//1
f 12//1 11//1 43//1
f 42//1 43//1 11//1
f 39//1 40//1 7//1
f 41//1 42//1 10//1
f 11//1 10//1 42//1
f 8//1 40//1 41//1
f 12//1 43//1 44//1
f 12//1 44//1 45//1
f 14//1 13//1 45//1
f 16//1 15//1 47//1
f 18//1 17//1 49//1
f 51//1 19//1 18//1
f 50//1 51//1 18//1
f 17//1 16//1 48//1
f 13//1 12//1 45//1
f 14//1 45//1 46//1
f 49//1 50//1 18//1
f 48//1 49//1 17//1
f 14//1 46//1 47//1
f 47//1 48//1 16//1
f 115//2 84//2 83//2
f 84//2 117//2 85//2
f 119//2 86//2 118//2
f 122//2 89//2 121//2
f 126//2 93//2 125//2
f 97//2 96//2 128//2
f 101//2 68//2 100//2
f 105//2 73//2 72//2
f 111//2 79//2 78//2
f 115//2 116//2 84//2
f 84//2 116//2 117//2
f 85//2 117//2 118//2
f 119//2 120//2 88//2
f 85//2 118//2 86//2
f 87//2 86//2 119//2
f 119//2 88//2 87//2
f 88//2 120//2 121//2
f 122//2 123//2 91//2
f 88//2 121//2 89//2
f 90//2 89//2 122//2
f 122//2 91//2 90//2
f 91//2 123//2 124//2
f 91//2 124//2 92//2
f 93//2 92//2 125//2
f 95//2 94//2 126//2
f 126//2 127//2 95//2
f 124//2 125//2 92//2
f 94//2 93//2 126//2
f 95//2 127//2 128//2
f 97//2 98//2 66//2
f 95//2 128//2 96//2
f 65//2 96//2 97//2
f 97//2 66//2 65//2
f 66//2 98//2 99//2
f 66//2 99//2 67//2
f 68//2 67//2 100//2
f 70//2 69//2 101//2
f 101//2 102//2 70//2
f 99//2 100//2 67//2
f 69//2 68//2 101//2
f 70//2 102//2 103//2
f 70//2 103//2 71//2
f 72//2 71//2 104//2
f 74//2 73//2 105//2
f 76//2 75//2 107//2
f 106//2 107//2 75//2
f 103//2 104//2 71//2
f 105//2 106//2 74//2
f 75//2 74//2 106//2
f 72//2 104//2 105//2
f 76//2 107//2 108//2
f 76//2 108//2 109//2
f 78//2 77//2 109//2
f 80//2 79//2 111//2
f 82//2 81//2 113//2
f 115//2 83//2 82//2
f 114//2 115//2 82//2
f 81//2 80//2 112//2
f 77//2 76//2 109//2
f 78//2 109//2 110//2
f 113//2 114//2 82//2
f 112//2 113//2 81//2
f 78//2 110//2 111//2
f 111//2 112//2 80//2
f 75//3 76//3 23//3
f 25//4 26//4 72//4
f 30//5 68//5 69//5
f 2//6 96//6 65//6
f 5//7 94//7 4//7
f 11//8 88//8 10//8
f 85//9 86//9 13//9
f 16//10 83//10 15//10
f 18//11 80//11 81//11
f 21//12 22//12 76//12
f 23//13 24//13 74//13
f 74//13 75//13 23//13
f 76//12 77//12 21//12
f 22//3 23//3 76//3
f 27//14 28//14 70//14
f 70//14 71//14 27//14
f 73//15 74//15 24//15
f 27//16 71//16 72//16
f 72//4 73//4 25//4
f 73//15 24//15 25//15
f 26//16 27//16 72//16
f 32//17 1//17 65//17
f 66//18 67//18 31//18
f 32//17 65//17 66//17
f 31//18 32//18 66//18
f 67//19 68//19 31//19
f 69//20 70//20 28//20
f 69//20 28//20 29//20
f 31//19 68//19 30//19
f 69//5 29//5 30//5
f 2//21 3//21 95//21
f 95//21 96//21 2//21
f 65//6 1//6 2//6
f 3//22 4//22 95//22
f 5//23 6//23 92//23
f 7//24 91//24 92//24
f 92//23 93//23 5//23
f 6//24 7//24 92//24
f 95//22 4//22 94//22
f 5//7 93//7 94//7
f 7//25 8//25 91//25
f 9//26 10//26 89//26
f 11//27 12//27 87//27
f 13//9 86//9 12//9
f 87//8 88//8 11//8
f 89//28 90//28 9//28
f 91//25 8//25 90//25
f 10//26 88//26 89//26
f 86//27 87//27 12//27
f 90//28 8//28 9//28
f 13//29 14//29 84//29
f 84//29 85//29 13//29
f 14//30 15//30 83//30
f 16//10 82//10 83//10
f 83//30 84//30 14//30
f 20//31 21//31 77//31
f 77//31 78//31 20//31
f 79//32 80//32 18//32
f 81//33 82//33 16//33
f 81//33 16//33 17//33
f 78//34 79//34 19//34
f 19//34 20//34 78//34
f 81//11 17//11 18//11
f 18//32 19//32 79//32
f 46//19 115//19 47//19
f 119//14 44//14 43//14
f 124//3 123//3 39//3
f 33//33 98//33 97//33
f 59//27 102//27 60//27
f 105//26 58//26 57//26
f 110//22 52//22 51//22
f 46//19 116//19 115//19
f 41//15 40//15 122//15
f 123//13 122//13 40//13
f 121//4 120//4 42//4
f 119//14 118//14 44//14
f 117//5 116//5 45//5
f 116//5 46//5 45//5
f 120//16 119//16 43//16
f 41//15 122//15 121//15
f 42//4 41//4 121//4
f 118//20 117//20 45//20
f 118//20 45//20 44//20
f 43//16 42//16 120//16
f 36//34 35//34 127//34
f 128//32 127//32 35//32
f 125//12 124//12 38//12
f 127//34 126//34 36//34
f 37//31 36//31 126//31
f 38//12 37//12 125//12
f 126//31 125//31 37//31
f 123//13 40//13 39//13
f 39//3 38//3 124//3
f 63//30 62//30 100//30
f 101//29 100//29 62//29
f 100//30 99//30 63//30
f 64//10 63//10 99//10
f 33//33 64//33 98//33
f 99//10 98//10 64//10
f 97//11 128//11 34//11
f 34//11 33//11 97//11
f 128//32 35//32 34//32
f 61//9 60//9 102//9
f 59//8 104//8 103//8
f 102//9 101//9 61//9
f 59//27 103//27 102//27
f 101//29 62//29 61//29
f 56//25 55//25 106//25
f 54//23 109//23 108//23
f 108//24 107//24 54//24
f 105//26 104//26 58//26
f 54//24 107//24 55//24
f 106//28 105//28 57//28
f 59//8 58//8 104//8
f 57//28 56//28 106//28
f 107//25 106//25 55//25
f 48//18 47//18 115//18
f 115//18 114//18 48//18
f 112//21 111//21 50//21
f 114//17 113//17 49//17
f 49//17 48//17 114//17
f 50//6 49//6 113//6
f 113//6 112//6 50//6
f 110//7 109//7 53//7
f 109//23 54//23 53//23
f 50//21 111//21 51//21
f 51//22 111//22 110//22
f 110//7 53//7 52//7
f 130//35 131//35 129//35
f 132//36 135//36 131//36
f 136//37 133//37 135//37
f 134//38 129//38 133//38
f 135//1 129//1 131//1
f 132//2 134//2 136//2
f 138//39 139//39 137//39
f 140//40 143//40 139//40
f 144//41 141//41 143//41
f 142//42 137//42 141//42
f 143//1 137//1 139//1
f 140//2 142//2 144//2
f 130//35 132//35 131//35
f 132//36 136//36 135//36
f 136//37 134//37 133//37
f 134//38 130//38 129//38
f 135//1 133//1 129//1
f 132//2 130//2 134//2
f 138//39 140//39 139//39
f 140//40 144//40 143//40
f 144//41 142//41 141//41
f 142//42 138//42 137//42
f 143//1 141//1 137//1
f 140//2 138//2 142//2
