# Blender v2.79 (sub 0) OBJ File: ''
# www.blender.org
mtllib heart.mtl
o Heart-Top
v 0.000000 0.061833 -0.220000
v 0.000000 0.302955 -0.031716
v -0.500000 0.461833 -0.220000
v -0.500000 0.702955 -0.031716
v -0.770900 0.245113 -0.220000
v -0.978001 0.320554 -0.031716
v -0.709450 -0.062135 -0.220000
v -0.881703 -0.160938 -0.031716
v 0.000000 -0.692758 -0.220000
v 0.000000 -0.944674 -0.031716
v 0.709450 -0.062135 -0.220000
v 0.881703 -0.160938 -0.031716
v 0.770900 0.245113 -0.220000
v 0.978001 0.320554 -0.031716
v 0.500000 0.461833 -0.220000
v 0.500000 0.702955 -0.031716
v 0.000000 0.302955 0.000000
v -0.500000 0.702955 0.000000
v -0.978001 0.320554 0.000000
v -0.881703 -0.160938 0.000000
v 0.000000 -0.944674 0.000000
v 0.881703 -0.160938 0.000000
v 0.978001 0.320554 0.000000
v 0.500000 0.702955 0.000000
v 0.000000 0.072442 -0.240000
v -0.500000 0.472442 -0.240000
v 0.000000 0.328567 -0.040000
v -0.500000 0.728567 -0.040000
v -0.780012 0.248432 -0.240000
v -1.000000 0.328567 -0.040000
v -0.717029 -0.066483 -0.240000
v -0.900000 -0.171433 -0.040000
v 0.000000 -0.703842 -0.240000
v 0.000000 -0.971433 -0.040000
v 0.717029 -0.066482 -0.240000
v 0.900000 -0.171433 -0.040000
v 0.780012 0.248432 -0.240000
v 1.000000 0.328567 -0.040000
v 0.500000 0.472442 -0.240000
v 0.500000 0.728567 -0.040000
v -0.500000 0.728567 0.000000
v 0.000000 0.328567 0.000000
v -1.000000 0.328567 0.000000
v -0.900000 -0.171433 0.000000
v 0.000000 -0.971433 0.000000
v 0.900000 -0.171433 0.000000
v 1.000000 0.328567 0.000000
v 0.500000 0.728567 0.000000
v -0.000000 0.061833 0.220000
v -0.000000 0.302955 0.031716
v 0.500000 0.461833 0.220000
v 0.500000 0.702955 0.031716
v 0.770900 0.245113 0.220000
v 0.978001 0.320554 0.031716
v 0.709450 -0.062135 0.220000
v 0.881703 -0.160938 0.031716
v -0.000000 -0.692758 0.220000
v -0.000000 -0.944674 0.031716
v -0.709450 -0.062135 0.220000
v -0.881703 -0.160938 0.031716
v -0.770900 0.245113 0.220000
v -0.978001 0.320554 0.031716
v -0.500000 0.461833 0.220000
v -0.500000 0.702955 0.031716
v -0.000000 0.302955 -0.000000
v 0.500000 0.702955 0.000000
v 0.978001 0.320554 -0.000000
v 0.881703 -0.160938 -0.000000
v -0.000000 -0.944674 -0.000000
v -0.881703 -0.160938 -0.000000
v -0.978001 0.320554 -0.000000
v -0.500000 0.702955 0.000000
v -0.000000 0.072442 0.240000
v 0.500000 0.472442 0.240000
v -0.000000 0.328567 0.040000
v 0.500000 0.728567 0.040000
v 0.780012 0.248432 0.240000
v 1.000000 0.328567 0.040000
v 0.717029 -0.066483 0.240000
v 0.900000 -0.171433 0.040000
v -0.000000 -0.703842 0.240000
v -0.000000 -0.971433 0.040000
v -0.717029 -0.066483 0.240000
v -0.900000 -0.171433 0.040000
v -0.780012 0.248432 0.240000
v -1.000000 0.328567 0.040000
v -0.500000 0.472442 0.240000
v -0.500000 0.728567 0.040000
v 0.500000 0.728567 0.000000
v -0.000000 0.328567 -0.000000
v 1.000000 0.328567 -0.000000
v 0.900000 -0.171433 -0.000000
v -0.000000 -0.971433 -0.000000
v -0.900000 -0.171433 -0.000000
v -1.000000 0.328567 -0.000000
v -0.500000 0.728567 0.000000
vn -0.4417 -0.5522 0.7071
vn 0.4417 -0.5522 0.7071
vn 0.6934 0.1387 0.7071
vn 0.4698 0.5285 0.7071
vn -0.4698 0.5285 0.7071
vn -0.6934 0.1387 0.7071
vn -0.0000 0.0000 1.0000
vn -0.6247 -0.7809 0.0000
vn 0.6247 -0.7809 0.0000
vn 0.9806 0.1961 0.0000
vn 0.6644 0.7474 -0.0000
vn -0.6644 0.7474 0.0000
vn -0.9806 0.1961 -0.0000
vn 0.4417 0.5522 -0.7071
vn -0.4417 0.5522 -0.7071
vn -0.6934 -0.1387 -0.7071
vn -0.4698 -0.5285 -0.7071
vn 0.4698 -0.5285 -0.7071
vn 0.6934 -0.1387 -0.7071
vn 0.0000 -0.0000 -1.0000
vn 0.6247 0.7809 0.0000
vn -0.6247 0.7809 0.0000
vn -0.9806 -0.1961 0.0000
vn -0.6644 -0.7474 0.0000
vn 0.6644 -0.7474 0.0000
vn 0.9806 -0.1961 0.0000
vn 0.4417 -0.5522 -0.7071
vn -0.4417 -0.5522 -0.7071
vn -0.6934 0.1387 -0.7071
vn -0.4698 0.5285 -0.7071
vn 0.4698 0.5285 -0.7071
vn 0.6934 0.1387 -0.7071
vn -0.4417 0.5522 0.7071
vn 0.4417 0.5522 0.7071
vn 0.6934 -0.1387 0.7071
vn 0.4698 -0.5285 0.7071
vn -0.4698 -0.5285 0.7071
vn -0.6934 -0.1387 0.7071
usemtl Material.001
s off
f 1//1 2//1 3//1
f 3//1 2//1 4//1
f 5//2 3//2 6//2
f 6//2 3//2 4//2
f 7//3 5//3 8//3
f 8//3 5//3 6//3
f 7//4 8//4 9//4
f 9//4 8//4 10//4
f 11//5 9//5 12//5
f 12//5 9//5 10//5
f 11//6 12//6 13//6
f 13//6 12//6 14//6
f 13//1 14//1 15//1
f 15//1 14//1 16//1
f 1//2 15//2 2//2
f 2//2 15//2 16//2
f 3//7 5//7 1//7
f 1//7 5//7 7//7
f 1//7 7//7 9//7
f 9//7 11//7 1//7
f 1//7 11//7 13//7
f 1//7 13//7 15//7
f 17//8 18//8 2//8
f 2//8 18//8 4//8
f 18//9 19//9 4//9
f 4//9 19//9 6//9
f 19//10 20//10 6//10
f 6//10 20//10 8//10
f 20//11 21//11 8//11
f 8//11 21//11 10//11
f 21//12 22//12 10//12
f 10//12 22//12 12//12
f 22//13 23//13 12//13
f 12//13 23//13 14//13
f 23//8 24//8 14//8
f 14//8 24//8 16//8
f 24//9 17//9 16//9
f 16//9 17//9 2//9
f 25//14 26//14 27//14
f 27//14 26//14 28//14
f 29//15 30//15 26//15
f 26//15 30//15 28//15
f 31//16 32//16 29//16
f 29//16 32//16 30//16
f 31//17 33//17 32//17
f 32//17 33//17 34//17
f 35//18 36//18 33//18
f 33//18 36//18 34//18
f 35//19 37//19 36//19
f 36//19 37//19 38//19
f 37//14 39//14 38//14
f 38//14 39//14 40//14
f 25//15 27//15 39//15
f 39//15 27//15 40//15
f 26//20 25//20 29//20
f 29//20 25//20 31//20
f 31//20 25//20 33//20
f 33//20 25//20 35//20
f 35//20 25//20 37//20
f 37//20 25//20 39//20
f 41//21 42//21 28//21
f 28//21 42//21 27//21
f 43//22 41//22 30//22
f 30//22 41//22 28//22
f 44//23 43//23 32//23
f 32//23 43//23 30//23
f 45//24 44//24 34//24
f 34//24 44//24 32//24
f 46//25 45//25 36//25
f 36//25 45//25 34//25
f 47//26 46//26 38//26
f 38//26 46//26 36//26
f 48//21 47//21 40//21
f 40//21 47//21 38//21
f 42//22 48//22 27//22
f 27//22 48//22 40//22
f 17//7 42//7 18//7
f 18//7 42//7 41//7
f 18//7 41//7 43//7
f 17//7 24//7 42//7
f 42//7 24//7 48//7
f 48//7 24//7 47//7
f 47//7 24//7 23//7
f 47//7 23//7 46//7
f 46//7 23//7 22//7
f 46//7 22//7 21//7
f 20//7 44//7 21//7
f 21//7 44//7 45//7
f 21//7 45//7 46//7
f 20//7 19//7 44//7
f 44//7 19//7 43//7
f 43//7 19//7 18//7
f 49//27 50//27 51//27
f 51//27 50//27 52//27
f 53//28 51//28 54//28
f 54//28 51//28 52//28
f 55//29 53//29 56//29
f 56//29 53//29 54//29
f 55//30 56//30 57//30
f 57//30 56//30 58//30
f 59//31 57//31 60//31
f 60//31 57//31 58//31
f 59//32 60//32 61//32
f 61//32 60//32 62//32
f 61//27 62//27 63//27
f 63//27 62//27 64//27
f 49//28 63//28 50//28
f 50//28 63//28 64//28
f 51//20 53//20 49//20
f 49//20 53//20 55//20
f 49//20 55//20 57//20
f 57//20 59//20 49//20
f 49//20 59//20 61//20
f 49//20 61//20 63//20
f 65//9 66//9 50//9
f 50//9 66//9 52//9
f 66//8 67//8 52//8
f 52//8 67//8 54//8
f 67//13 68//13 54//13
f 54//13 68//13 56//13
f 68//12 69//12 56//12
f 56//12 69//12 58//12
f 69//11 70//11 58//11
f 58//11 70//11 60//11
f 70//10 71//10 60//10
f 60//10 71//10 62//10
f 71//9 72//9 62//9
f 62//9 72//9 64//9
f 72//8 65//8 64//8
f 64//8 65//8 50//8
f 73//33 74//33 75//33
f 75//33 74//33 76//33
f 77//34 78//34 74//34
f 74//34 78//34 76//34
f 79//35 80//35 77//35
f 77//35 80//35 78//35
f 79//36 81//36 80//36
f 80//36 81//36 82//36
f 83//37 84//37 81//37
f 81//37 84//37 82//37
f 83//38 85//38 84//38
f 84//38 85//38 86//38
f 85//33 87//33 86//33
f 86//33 87//33 88//33
f 73//34 75//34 87//34
f 87//34 75//34 88//34
f 74//7 73//7 77//7
f 77//7 73//7 79//7
f 79//7 73//7 81//7
f 81//7 73//7 83//7
f 83//7 73//7 85//7
f 85//7 73//7 87//7
f 89//22 90//22 76//22
f 76//22 90//22 75//22
f 91//21 89//21 78//21
f 78//21 89//21 76//21
f 92//26 91//26 80//26
f 80//26 91//26 78//26
f 93//25 92//25 82//25
f 82//25 92//25 80//25
f 94//24 93//24 84//24
f 84//24 93//24 82//24
f 95//23 94//23 86//23
f 86//23 94//23 84//23
f 96//22 95//22 88//22
f 88//22 95//22 86//22
f 90//21 96//21 75//21
f 75//21 96//21 88//21
f 65//20 90//20 66//20
f 66//20 90//20 89//20
f 66//20 89//20 91//20
f 65//20 72//20 90//20
f 90//20 72//20 96//20
f 96//20 72//20 95//20
f 95//20 72//20 71//20
f 95//20 71//20 94//20
f 94//20 71//20 70//20
f 94//20 70//20 69//20
f 68//20 92//20 69//20
f 69//20 92//20 93//20
f 69//20 93//20 94//20
f 68//20 67//20 92//20
f 92//20 67//20 91//20
f 91//20 67//20 66//20
