# Blender v2.79 (sub 0) OBJ File: ''
# www.blender.org
mtllib triple_fire.mtl
o Tetraed_20mm
v 0.500000 0.038675 -0.404128
v 0.500000 -0.250000 0.412386
v 0.750000 -0.394337 -0.404129
v 0.250000 -0.394337 -0.404129
vn 0.8528 0.4924 0.1741
vn 0.0000 -0.9847 0.1741
vn 0.0000 0.0000 -1.0000
vn -0.8528 0.4924 0.1741
usemtl Material.002
s 1
f 1//1 2//1 3//1
f 2//2 4//2 3//2
f 3//3 4//3 1//3
f 1//4 4//4 2//4
o Tetraed_20mm.002_Tetraed_20mm
v -0.500000 0.038675 -0.404128
v -0.500000 -0.250000 0.412386
v -0.250000 -0.394337 -0.404129
v -0.750000 -0.394337 -0.404129
vn 0.8528 0.4924 0.1741
vn 0.0000 -0.9847 0.1741
vn 0.0000 0.0000 -1.0000
vn -0.8528 0.4924 0.1741
usemtl Material.002
s 1
f 5//5 6//5 7//5
f 6//6 8//6 7//6
f 7//7 8//7 5//7
f 5//8 8//8 6//8
o Tetraed_20mm.003_Tetraed_20mm
v 0.000000 0.788675 -0.404128
v 0.000000 0.500000 0.412386
v 0.250000 0.355663 -0.404128
v -0.250000 0.355663 -0.404128
vn 0.8528 0.4924 0.1741
vn 0.0000 -0.9847 0.1741
vn 0.0000 0.0000 -1.0000
vn -0.8528 0.4924 0.1741
usemtl Material.002
s 1
f 9//9 10//9 11//9
f 10//10 12//10 11//10
f 11//11 12//11 9//11
f 9//12 12//12 10//12
