# Blender v2.79 (sub 0) OBJ File: ''
# www.blender.org
mtllib arrow_speed.mtl
o Cube_Cube.002
v -0.160000 0.240000 0.400000
v -0.160000 -1.040000 -0.400000
v -0.160000 -1.040000 0.400000
v -0.160000 0.240000 -0.400000
v 0.160000 -1.040000 -0.400000
v 0.160000 0.240000 -0.400000
v 0.160000 -1.040000 0.400000
v 0.160000 0.240000 0.400000
v -0.160000 0.240000 0.800000
v -0.160000 1.520000 0.000000
v -0.160000 0.240000 -0.800000
v 0.160000 0.240000 -0.800000
v 0.160000 1.520000 0.000000
v 0.160000 0.240000 0.800000
vn -1.0000 0.0000 0.0000
vn 0.0000 0.0000 -1.0000
vn 1.0000 0.0000 0.0000
vn 0.0000 -0.0000 1.0000
vn 0.0000 -1.0000 0.0000
vn 0.0000 1.0000 0.0000
vn 0.0000 0.5300 -0.8480
vn 0.0000 0.5300 0.8480
usemtl Material.001
s 1
f 1//1 2//1 3//1
f 4//2 5//2 2//2
f 6//3 7//3 5//3
f 8//4 3//4 7//4
f 5//5 3//5 2//5
f 4//6 8//6 6//6
f 9//1 10//1 11//1
f 12//7 10//7 13//7
f 12//3 13//3 14//3
f 13//8 9//8 14//8
f 12//5 9//5 11//5
f 1//1 4//1 2//1
f 4//2 6//2 5//2
f 6//3 8//3 7//3
f 8//4 1//4 3//4
f 5//5 7//5 3//5
f 4//6 1//6 8//6
f 12//7 11//7 10//7
f 13//8 10//8 9//8
f 12//5 14//5 9//5
