# Blender v2.79 (sub 0) OBJ File: ''
# www.blender.org
mtllib arrow_speed.mtl
o Cube_Cube.002
v -0.200000 -1.300000 0.500000
v -0.200000 0.300000 0.500000
v -0.200000 -1.300000 -0.500000
v -0.200000 0.300000 -0.500000
v 0.200000 -1.300000 0.500000
v 0.200000 0.300000 0.500000
v 0.200000 -1.300000 -0.500000
v 0.200000 0.300000 -0.500000
v -0.200000 0.300000 1.000000
v -0.200000 1.900000 0.000000
v -0.200000 0.300000 -1.000000
v 0.200000 0.300000 1.000000
v 0.200000 1.900000 0.000000
v 0.200000 0.300000 -1.000000
vn -1.0000 0.0000 0.0000
vn 0.0000 0.0000 -1.0000
vn 1.0000 0.0000 0.0000
vn 0.0000 0.0000 1.0000
vn 0.0000 -1.0000 0.0000
vn 0.0000 1.0000 0.0000
vn 0.0000 0.5300 -0.8480
vn 0.0000 0.5300 0.8480
usemtl Material.001
s off
f 2//1 3//1 1//1
f 4//2 7//2 3//2
f 8//3 5//3 7//3
f 6//4 1//4 5//4
f 7//5 1//5 3//5
f 4//6 6//6 8//6
f 9//1 10//1 11//1
f 14//7 10//7 13//7
f 14//3 13//3 12//3
f 13//8 9//8 12//8
f 14//5 9//5 11//5
f 2//1 4//1 3//1
f 4//2 8//2 7//2
f 8//3 6//3 5//3
f 6//4 2//4 1//4
f 7//5 5//5 1//5
f 4//6 2//6 6//6
f 14//7 11//7 10//7
f 13//8 10//8 9//8
f 14//5 12//5 9//5
