# Blender v2.79 (sub 0) OBJ File: ''
# www.blender.org
mtllib quint_fire.mtl
o Tetraed_20mm.002_Tetraed_20mm
v -1.000000 0.288675 -0.404128
v -1.000000 -0.000000 0.412386
v -0.750000 -0.144337 -0.404128
v -1.250000 -0.144337 -0.404128
vn 0.8528 0.4924 0.1741
vn 0.0000 -0.9847 0.1741
vn 0.0000 0.0000 -1.0000
vn -0.8528 0.4924 0.1741
usemtl Material.002
s 1
f 1//1 2//1 3//1
f 2//2 4//2 3//2
f 3//3 4//3 1//3
f 1//4 4//4 2//4
o Tetraed_20mm.004_Tetraed_20mm
v 0.000000 -0.711325 -0.404129
v 0.000000 -1.000000 0.412386
v 0.250000 -1.144338 -0.404129
v -0.250000 -1.144338 -0.404129
vn 0.8528 0.4924 0.1741
vn 0.0000 -0.9847 0.1741
vn 0.0000 0.0000 -1.0000
vn -0.8528 0.4924 0.1741
usemtl Material.002
s 1
f 5//5 6//5 7//5
f 6//6 8//6 7//6
f 7//7 8//7 5//7
f 5//8 8//8 6//8
o Tetraed_20mm
v 0.000000 0.288675 -0.404128
v 0.000000 -0.000000 0.412386
v 0.250000 -0.144337 -0.404128
v -0.250000 -0.144337 -0.404128
vn 0.8528 0.4924 0.1741
vn 0.0000 -0.9847 0.1741
vn 0.0000 0.0000 -1.0000
vn -0.8528 0.4924 0.1741
usemtl Material.002
s 1
f 9//9 10//9 11//9
f 10//10 12//10 11//10
f 11//11 12//11 9//11
f 9//12 12//12 10//12
o Tetraed_20mm.001_Tetraed_20mm
v 1.000000 0.288675 -0.404128
v 1.000000 -0.000000 0.412386
v 1.250000 -0.144337 -0.404128
v 0.750000 -0.144337 -0.404128
vn 0.8528 0.4924 0.1741
vn 0.0000 -0.9847 0.1741
vn 0.0000 0.0000 -1.0000
vn -0.8528 0.4924 0.1741
usemtl Material.002
s 1
f 13//13 14//13 15//13
f 14//14 16//14 15//14
f 15//15 16//15 13//15
f 13//16 16//16 14//16
o Tetraed_20mm.003_Tetraed_20mm
v 0.000000 1.288675 -0.404128
v 0.000000 1.000000 0.412386
v 0.250000 0.855663 -0.404128
v -0.250000 0.855663 -0.404128
vn 0.8528 0.4924 0.1741
vn 0.0000 -0.9847 0.1741
vn 0.0000 0.0000 -1.0000
vn -0.8528 0.4924 0.1741
usemtl Material.002
s 1
f 17//17 18//17 19//17
f 18//18 20//18 19//18
f 19//19 20//19 17//19
f 17//20 20//20 18//20
