# Blender v2.78 (sub 0) OBJ File: 'bird.blend'
# www.blender.org
mtllib ship_bird.mtl
o Bird
v 0.000001 -0.419414 -1.081463
v -0.000001 -0.467915 0.577312
v 0.427508 -0.271053 -0.779825
v 0.332084 -0.360527 0.689304
v 1.199252 0.006844 -0.509866
v -0.332085 -0.360527 0.689304
v -1.755127 -0.034770 0.899620
v -0.498261 0.175046 0.610821
v -1.199251 0.006844 -0.509867
v -4.402051 0.220369 -1.059819
v -0.446105 0.116741 -1.079344
v -0.196735 -0.103001 1.099675
v -0.427507 -0.271053 -0.779825
v -1.199445 0.853469 -2.429909
v 0.446106 0.116741 -1.079343
v 1.199447 0.853469 -2.429907
v 0.498260 0.175046 0.610821
v -0.000001 0.594527 0.903289
v 1.755126 -0.034770 0.899622
v 4.402052 0.220369 -1.059814
v -0.000002 -0.871916 2.289643
v 0.196734 -0.103001 1.099675
v 0.000001 -0.040631 -1.723251
v -0.000001 0.000802 1.253765
vn -0.3450 0.9382 0.0274
vn 0.0154 0.9591 0.2827
vn 0.1733 -0.9841 0.0393
vn 0.8810 0.2113 -0.4232
vn -0.0575 -0.9970 -0.0521
vn 0.2004 0.9690 -0.1446
vn -0.6274 -0.7774 0.0462
vn 0.0575 -0.9970 -0.0521
vn -0.0154 0.9591 0.2827
vn -0.3651 0.9061 0.2138
vn -0.9629 -0.1244 -0.2395
vn -0.4459 0.5604 0.6979
vn -0.2004 0.9690 -0.1446
vn -0.8810 0.2113 -0.4232
vn -0.6824 -0.3716 -0.6295
vn -0.3961 0.8344 0.3833
vn -0.1733 -0.9841 0.0393
vn 0.4459 0.5604 0.6979
vn 0.0036 -0.9720 0.2350
vn 0.3450 0.9382 0.0274
vn 0.9629 -0.1244 -0.2395
vn 0.3961 0.8344 0.3833
vn -0.0036 -0.9720 0.2350
vn 0.6274 -0.7774 0.0462
vn 0.3651 0.9061 0.2138
vn 0.6824 -0.3716 -0.6295
vn -0.3240 0.9445 0.0551
vn -0.3469 0.9375 0.0267
vn -0.1877 -0.1992 -0.9618
vn 0.6620 -0.4380 -0.6082
vn -0.6620 -0.4380 -0.6082
vn 0.1877 -0.1992 -0.9618
vn -0.6723 -0.5661 -0.4770
vn 0.5270 -0.8344 -0.1612
vn 0.6723 -0.5661 -0.4770
vn 0.3492 0.9364 0.0343
vn 0.3187 0.9471 0.0370
vn -0.5270 -0.8344 -0.1612
vn -0.5494 0.7196 0.4247
vn 0.5494 0.7196 0.4247
vn -0.6857 -0.3643 -0.6301
vn 0.6857 -0.3643 -0.6301
usemtl body
s off
f 1//1 2//1 3//1
f 6//2 9//2 10//2
f 11//3 8//3 7//3
f 8//4 12//4 6//4
f 7//5 10//5 9//5
f 10//6 7//6 6//6
f 15//7 17//7 18//7
f 19//8 5//8 20//8
f 4//9 20//9 5//9
f 4//10 2//10 21//10
f 4//11 21//11 22//11
f 15//12 3//12 5//12
f 20//13 4//13 19//13
f 17//14 4//14 22//14
f 24//15 18//15 17//15
f 16//16 23//16 3//16
f 19//17 17//17 15//17
f 11//18 9//18 13//18
f 15//19 18//19 23//19
f 1//20 13//20 2//20
f 6//21 12//21 21//21
f 14//22 13//22 23//22
f 11//23 23//23 18//23
f 11//24 18//24 8//24
f 6//25 21//25 2//25
f 8//26 18//26 24//26
usemtl red
f 2//27 4//27 5//27
f 2//28 5//28 3//28
f 6//29 7//29 8//29
f 7//3 9//3 11//3
f 13//30 14//30 11//30
f 3//31 15//31 16//31
f 4//32 17//32 19//32
f 21//33 24//33 22//33
f 16//34 15//34 23//34
f 15//17 5//17 19//17
f 21//35 12//35 24//35
f 13//36 9//36 6//36
f 13//37 6//37 2//37
f 14//38 23//38 11//38
usemtl reactor
f 1//39 3//39 23//39
f 1//40 23//40 13//40
usemtl eyes
f 17//41 22//41 24//41
f 24//42 12//42 8//42
