# Blender v2.78 (sub 0) OBJ File: ''
# www.blender.org
mtllib ship_3.mtl
o spaceshipMK5
v 0.312500 -0.352084 1.248437
v 0.342500 -0.352083 1.848437
v -0.287500 -0.352083 1.848437
v -0.287500 -0.352084 1.248437
v 0.372500 0.247916 1.248438
v 0.372499 0.191995 1.848438
v -0.347500 0.191995 1.848437
v 0.012499 -0.352083 2.748438
v 0.312501 -0.352083 -1.489062
v -0.287500 -0.352083 -1.489063
v 0.222501 0.247917 -1.489062
v -0.197499 0.247917 -1.489062
v 0.912501 -0.052083 -1.519063
v 0.012500 0.506526 1.248437
v -0.347500 0.247916 1.248437
v -0.197500 0.247917 -0.739063
v -0.887500 -0.052083 -1.519063
v -0.887500 -0.052083 -0.739063
v -0.887500 -0.052083 -0.439063
v -0.197500 0.247917 -0.439062
v -0.197500 0.247917 -0.739063
v -0.887500 -0.052083 -0.739063
v 0.912500 -0.052083 -0.739062
v 0.912500 -0.052083 -0.739062
v 0.222500 0.247917 -0.739062
v 0.912500 -0.052083 -0.439062
v 0.912500 -0.052083 -0.439063
v 0.222500 0.247917 -0.439062
v -0.887500 -0.052083 -0.439063
v 0.642500 -0.052083 0.535937
v 0.312501 -0.352083 0.535937
v -0.617500 -0.052083 0.535937
v -0.617500 -0.052083 0.535937
v -0.287499 -0.352083 0.535937
v 0.222500 0.247917 -0.739062
v 0.012501 0.699000 -1.459062
v 0.312500 -0.352083 -0.439063
v -0.287500 -0.352083 -0.439063
v 0.312501 -0.352084 1.248438
vn 0.0000 -1.0000 0.0000
vn 0.9950 -0.0995 -0.0093
vn 0.9972 -0.0550 -0.0499
vn -0.9435 -0.1041 0.3145
vn 0.9376 -0.0517 0.3438
vn -0.0465 -0.0070 -0.9989
vn -0.0000 0.8857 0.4643
vn 0.5818 0.8098 0.0755
vn -0.5818 0.8098 0.0755
vn 0.0465 -0.0070 -0.9989
vn 1.0000 0.0000 0.0000
vn 0.0933 0.9956 -0.0000
vn -0.0933 -0.9956 0.0000
vn 0.6613 -0.7274 0.1831
vn -0.0507 -0.9986 -0.0156
vn -0.6613 -0.7274 0.1831
vn -1.0000 0.0000 -0.0000
vn -0.1191 0.9929 0.0000
vn 0.1159 -0.9933 0.0000
vn 0.0000 0.0664 -0.9978
vn -0.3985 0.9165 -0.0354
vn 0.6727 -0.7399 -0.0000
vn 0.9385 0.2274 0.2599
vn -0.6325 0.0671 0.7716
vn 0.9177 -0.0918 0.3864
vn 0.5826 0.8111 -0.0518
vn -0.5826 0.8111 -0.0518
vn 0.0000 0.9885 -0.1515
vn -0.6408 -0.4229 -0.6408
vn -0.6727 -0.7399 -0.0000
vn -0.9177 -0.0918 0.3864
vn 0.3985 0.9165 -0.0354
vn -0.3048 0.9143 -0.2667
vn -0.9385 0.2274 0.2599
vn 0.5572 -0.6820 -0.4736
vn 0.4472 -0.8944 -0.0000
vn -0.4472 -0.8944 0.0000
vn -0.9950 -0.0995 -0.0093
vn -0.9940 -0.1096 -0.0000
vn 0.0000 0.0000 -1.0000
vn -0.3987 0.9171 -0.0000
vn 0.0000 0.0000 1.0000
vn 0.3987 0.9171 0.0000
vn 0.9066 0.4221 0.0000
vn -0.9066 0.4221 -0.0000
vn -0.0000 0.9146 0.4045
vn -0.0000 0.8558 0.5173
usemtl body
s off
f 1//1 2//1 3//1
f 3//1 4//1 1//1
f 5//2 6//2 1//2
f 2//3 1//3 6//3
f 7//4 3//4 8//4
f 2//5 6//5 8//5
f 3//1 2//1 8//1
f 9//1 1//1 4//1
f 4//1 10//1 9//1
f 9//6 11//6 13//6
f 7//7 6//7 14//7
f 6//8 5//8 14//8
f 15//9 7//9 14//9
f 12//10 10//10 17//10
f 23//11 24//11 13//11
f 24//12 23//12 26//12
f 26//13 27//13 24//13
f 30//14 31//14 26//14
f 19//1 29//1 32//1
f 32//1 33//1 19//1
f 27//15 26//15 30//15
f 34//16 32//16 29//16
f 12//11 16//11 21//11
f 11//17 35//17 25//17
f 12//18 21//18 20//18
f 11//19 28//19 35//19
f 11//20 12//20 36//20
f 20//21 19//21 15//21
f 30//22 39//22 31//22
f 30//23 26//23 5//23
f 5//24 1//24 39//24
f 39//25 30//25 5//25
f 5//26 28//26 14//26
f 15//27 14//27 20//27
f 20//28 14//28 28//28
f 25//11 28//11 35//11
f 33//29 32//29 34//29
f 34//30 4//30 33//30
f 15//31 33//31 4//31
f 28//32 5//32 26//32
f 32//33 33//33 15//33
f 32//34 15//34 19//34
f 37//35 27//35 26//35
f 26//36 31//36 37//36
f 29//37 38//37 34//37
f 15//38 4//38 7//38
f 4//39 3//39 7//39
usemtl Material.001
f 11//40 9//40 10//40
f 10//40 12//40 11//40
usemtl wing
f 16//41 12//41 17//41
f 17//41 18//41 16//41
f 18//41 19//41 20//41
f 20//41 21//41 18//41
f 22//42 18//42 17//42
f 11//43 25//43 23//43
f 23//43 13//43 11//43
f 23//43 25//43 28//43
f 28//43 26//43 23//43
f 18//1 22//1 29//1
f 29//1 19//1 18//1
f 9//36 13//36 27//36
f 27//36 37//36 9//36
f 10//37 38//37 29//37
f 29//37 17//37 10//37
f 11//44 36//44 28//44
f 12//45 20//45 36//45
f 28//46 36//46 20//46
usemtl glass
f 6//47 7//47 8//47
